<?xml version="1.0" encoding="UTF-8"?>
<svg width="120" height="120" viewBox="0 0 120 120" xmlns="http://www.w3.org/2000/svg">
  <defs>
    <linearGradient id="medicalGradient" x1="0%" y1="0%" x2="100%" y2="100%">
      <stop offset="0%" style="stop-color:#4a90e2;stop-opacity:1" />
      <stop offset="100%" style="stop-color:#00a86b;stop-opacity:1" />
    </linearGradient>
    <linearGradient id="buildingGradient" x1="0%" y1="0%" x2="100%" y2="100%">
      <stop offset="0%" style="stop-color:#6bb6ff;stop-opacity:1" />
      <stop offset="100%" style="stop-color:#4ecdc4;stop-opacity:1" />
    </linearGradient>
  </defs>
  
  <!-- Background circle -->
  <circle cx="60" cy="60" r="58" fill="none" stroke="url(#medicalGradient)" stroke-width="2" opacity="0.3"/>
  
  <!-- Building structure -->
  <rect x="20" y="45" width="80" height="50" fill="url(#buildingGradient)" opacity="0.7" rx="4"/>
  <rect x="25" y="50" width="15" height="40" fill="url(#medicalGradient)" opacity="0.8" rx="2"/>
  <rect x="45" y="40" width="30" height="50" fill="url(#medicalGradient)" opacity="0.9" rx="2"/>
  <rect x="80" y="55" width="15" height="35" fill="url(#medicalGradient)" opacity="0.8" rx="2"/>
  
  <!-- Medical cross -->
  <g transform="translate(60,60)">
    <!-- Horizontal bar -->
    <rect x="-12" y="-3" width="24" height="6" fill="#ffffff" rx="3"/>
    <!-- Vertical bar -->
    <rect x="-3" y="-12" width="6" height="24" fill="#ffffff" rx="3"/>
  </g>
  
  <!-- Small windows on buildings -->
  <rect x="28" y="55" width="3" height="3" fill="#ffffff" opacity="0.8" rx="0.5"/>
  <rect x="33" y="55" width="3" height="3" fill="#ffffff" opacity="0.8" rx="0.5"/>
  <rect x="28" y="62" width="3" height="3" fill="#ffffff" opacity="0.8" rx="0.5"/>
  <rect x="33" y="62" width="3" height="3" fill="#ffffff" opacity="0.8" rx="0.5"/>
  
  <rect x="83" y="62" width="3" height="3" fill="#ffffff" opacity="0.8" rx="0.5"/>
  <rect x="88" y="62" width="3" height="3" fill="#ffffff" opacity="0.8" rx="0.5"/>
  <rect x="83" y="69" width="3" height="3" fill="#ffffff" opacity="0.8" rx="0.5"/>
  <rect x="88" y="69" width="3" height="3" fill="#ffffff" opacity="0.8" rx="0.5"/>
  
  <!-- AI/Tech elements - small dots representing data points -->
  <circle cx="25" cy="30" r="2" fill="url(#medicalGradient)" opacity="0.6"/>
  <circle cx="35" cy="25" r="1.5" fill="url(#medicalGradient)" opacity="0.7"/>
  <circle cx="45" cy="28" r="1" fill="url(#medicalGradient)" opacity="0.8"/>
  
  <circle cx="95" cy="35" r="2" fill="url(#medicalGradient)" opacity="0.6"/>
  <circle cx="85" cy="30" r="1.5" fill="url(#medicalGradient)" opacity="0.7"/>
  <circle cx="75" cy="33" r="1" fill="url(#medicalGradient)" opacity="0.8"/>
  
  <!-- Connection lines representing AI network -->
  <line x1="25" y1="30" x2="35" y2="25" stroke="url(#medicalGradient)" stroke-width="1" opacity="0.4"/>
  <line x1="35" y1="25" x2="45" y2="28" stroke="url(#medicalGradient)" stroke-width="1" opacity="0.4"/>
  <line x1="85" y1="30" x2="95" y2="35" stroke="url(#medicalGradient)" stroke-width="1" opacity="0.4"/>
  <line x1="75" y1="33" x2="85" y2="30" stroke="url(#medicalGradient)" stroke-width="1" opacity="0.4"/>
</svg>