<?xml version="1.0" encoding="UTF-8"?>
<svg xmlns="http://www.w3.org/2000/svg" viewBox="0 0 1024 1024" width="640" height="640">
  <style>
    .main { fill:none; opacity:0.7; fill:#8e43e7 }
  </style>

  <!-- 顶部元素 -->
  <path d="M924.06 171.58v2.49l0.73-2.25z" class="main"/>
  <path d="M924.06 174.07l0.73-2.25-0.73-0.24z" class="main"/>
  <path d="M924.06 174.07l0.73-2.25-0.73-0.24z" class="main"/>
  
  <!-- 底部元素 -->
  <path d="M607.57 597.29c-5.68 8.34-10.89 16.9-15.53 25.67-11.32 21.35-19.43 43.72-24.24 66.73H458.28c-4.8-23.01-12.92-45.38-24.24-66.73-4.65-8.77-9.85-17.34-15.53-25.68H363.6c12.73 14.37 23.51 29.82 32.09 46.01 11.94 22.53 19.59 46.37 22.72 70.86l2.43 18.95h184.41l2.43-18.95c3.13-24.49 10.78-48.33 22.72-70.86 8.58-16.19 19.35-31.63 32.09-46h-54.92z" class="main"/>
  
  <!-- 底下柱子 -->
  <path d="M605.24 733.11h-43.31v145.27c0 3.55-2.88 6.43-6.43 6.43h-84.9c-3.57 0-6.46-2.89-6.46-6.46V733.11h-43.31l-0.11-0.83V902.2c0 14.37 11.65 26.02 26.02 26.02h132.42c14.46 0 26.18-11.72 26.18-26.18V732.28l-0.1 0.83z" class="main"/>
  
  <!-- 中间元素 -->
  <path d="M592.52 394.89v-0.13h-40.16v43.41h40.16v0.13h50.51v115.58H384.68V438.3h49.82v-43.41h-93.23v202.4h345.17v-202.4z" class="main"/>
  <path d="M434.51 394.76h40.17v43.41h-40.17z" class="main"/>
  
  <!-- 顶部大梁结构 -->
  <path d="M881.97 250.6H144.1c-26.37 0-47.82-21.45-47.82-47.82v-56.19c0-26.37 21.45-47.82 47.82-47.82h737.87c26.37 0 47.82 21.45 47.82 47.82v56.19c0 26.37-21.45 47.82-47.82 47.82zM144.1 142.19c-2.43 0-4.41 1.98-4.41 4.41v56.19c0 2.43 1.98 4.41 4.41 4.41h737.87c2.43 0 4.41-1.98 4.41-4.41V146.6c0-2.43-1.98-4.41-4.41-4.41H144.1z" class="main"/>
  
  <!-- 复杂斗拱结构 -->
  <path d="M886.37 202.17v2.27l0.67-2.05zM805.29 312.78H709.4l-34.46-105.46h-79.5l-34.46 105.46h-95.89l-34.46-105.46h-78.58L317.6 312.78h-95.89l-34.46-105.46h-45.67l51.36 148.87v76l0.8 2.87c1.11 3.96 2.57 7.82 4.34 11.46 21.13 43.48 82.94 53.53 135.6 53.53 2.57 0 5.08-0.06 7.59-0.1v-43.37c-55.12 1.13-94.66-9.51-104.15-29.05-0.28-0.57-0.53-1.16-0.77-1.76V356.2h70.94v17.05c-0.76 8.15 0.11 16.07 2.59 23.58 6.09 18.47 19.97 29.19 31.39 35.15v-37.09h93.24v103.47h158.02V394.89h93.92v36.53c12.42-6.85 28.16-19.36 32.95-40.3 1.33-5.85 1.68-11.9 1.03-18.02v-16.9h70.94v71.39c-0.25 1.35-0.63 2.59-1.14 3.77-8.39 19.27-55.11 26.81-103.78 25.49v43.36c3.72 0.09 7.56 0.16 11.57 0.16 10.17 0 21.13-0.35 32.15-1.31 53.73-4.64 87.33-21.59 99.87-50.38 2.29-5.25 3.82-10.87 4.57-16.71l0.18-1.38V356.2l50.65-148.87h-45.67l-34.48 105.45zM434.5 394.89h-70.93c-1.21-0.4-9.95-3.43-12.46-11.66-0.74-2.42-0.75-4.66-0.55-6.38l0.14-1.24v-24.38l40.64-124.37L434.5 356.2v38.69z m117.86 60.06h-77.69V356.2h77.69v98.75z m124.84-77.72c0.2 1.54 0.16 2.92-0.14 4.22-1.35 5.92-8.49 10.57-13.93 13.18h-70.61v-38.61l42.67-130.57 42.72 130.74-0.91-2.78v20.94l0.2 2.88z m-0.19-23.81" class="main"/>
</svg>